HIERARCHY
ROOT Model_Hips
{
	OFFSET 0.000000 96.915077 0.000000
	CHANNELS 6 Xposition Yposition Zposition Xrotation Yrotation Zrotation
	JOINT Model_Spine
	{
		OFFSET 0.000000 11.137703 -1.289900
		CHANNELS 3 Xrotation Yrotation Zrotation
		JOINT Model_Spine1
		{
			OFFSET 0.000000 12.993942 -1.504922
			CHANNELS 3 Xrotation Yrotation Zrotation
			JOINT Model_Spine2
			{
				OFFSET 0.000000 14.850220 -1.719911
				CHANNELS 3 Xrotation Yrotation Zrotation
				JOINT Model_Neck
				{
					OFFSET 0.000000 16.706543 -1.934903
					CHANNELS 3 Xrotation Yrotation Zrotation
					JOINT Model_Head
					{
						OFFSET 0.000000 10.471298 2.002100
						CHANNELS 3 Xrotation Yrotation Zrotation
						JOINT Model_HeadTop_End
						{
							OFFSET 0.000000 20.842606 3.985100
							CHANNELS 3 Xrotation Yrotation Zrotation
							End Site
							{
								OFFSET 0.000000 21.220154 0.000000
							}
						}
					}
				}
				JOINT Model_LeftShoulder
				{
					OFFSET 7.008500 14.768600 -1.919946
					CHANNELS 3 Xrotation Yrotation Zrotation
					JOINT Model_LeftArm
					{
						OFFSET 14.126271 -3.718048 0.029937
						CHANNELS 3 Xrotation Yrotation Zrotation
						JOINT Model_LeftForeArm
						{
							OFFSET 28.282801 0.000000 0.000000
							CHANNELS 3 Xrotation Yrotation Zrotation
							JOINT Model_LeftHand
							{
								OFFSET 26.204689 0.000000 0.000000
								CHANNELS 3 Xrotation Yrotation Zrotation
								End Site
								{
									OFFSET 26.204704 0.000000 0.000000
								}
							}
						}
					}
				}
				JOINT Model_RightShoulder
				{
					OFFSET -7.008500 14.768555 -1.949840
					CHANNELS 3 Xrotation Yrotation Zrotation
					JOINT Model_RightArm
					{
						OFFSET -14.126281 -3.718018 -0.029932
						CHANNELS 3 Xrotation Yrotation Zrotation
						JOINT Model_RightForeArm
						{
							OFFSET -28.283798 0.000000 -0.000001
							CHANNELS 3 Xrotation Yrotation Zrotation
							JOINT Model_RightHand
							{
								OFFSET -26.204193 0.000000 -0.000001
								CHANNELS 3 Xrotation Yrotation Zrotation
								End Site
								{
									OFFSET -26.204208 0.000000 -0.000001
								}
							}
						}
					}
				}
			}
		}
	}
	JOINT Model_LeftUpLeg
	{
		OFFSET 8.327700 -6.193199 -0.402800
		CHANNELS 3 Xrotation Yrotation Zrotation
		JOINT Model_LeftLeg
		{
			OFFSET 0.735802 -42.108742 -0.610721
			CHANNELS 3 Xrotation Yrotation Zrotation
			JOINT Model_LeftFoot
			{
				OFFSET -0.735806 -36.833748 -0.172876
				CHANNELS 3 Xrotation Yrotation Zrotation
				JOINT Model_LeftToeBase
				{
					OFFSET -0.565857 -11.977769 16.297714
					CHANNELS 3 Xrotation Yrotation Zrotation
					JOINT Model_LeftToe_End
					{
						OFFSET -0.111712 -0.312793 7.857784
						CHANNELS 3 Xrotation Yrotation Zrotation
						End Site
						{
							OFFSET -0.111712 -0.312793 7.857784
						}
					}
				}
			}
		}
	}
	JOINT Model_RightUpLeg
	{
		OFFSET -8.327700 -6.193199 -0.516500
		CHANNELS 3 Xrotation Yrotation Zrotation
		JOINT Model_RightLeg
		{
			OFFSET -0.735785 -42.108738 -0.434061
			CHANNELS 3 Xrotation Yrotation Zrotation
			JOINT Model_RightFoot
			{
				OFFSET 0.735776 -36.833748 -0.021630
				CHANNELS 3 Xrotation Yrotation Zrotation
				JOINT Model_RightToeBase
				{
					OFFSET 0.565817 -11.977745 15.903093
					CHANNELS 3 Xrotation Yrotation Zrotation
					JOINT Model_RightToe_End
					{
						OFFSET 0.111702 -0.312791 7.811342
						CHANNELS 3 Xrotation Yrotation Zrotation
						End Site
						{
							OFFSET 0.111702 -0.312791 7.811342
						}
					}
				}
			}
		}
	}
}
MOTION
Frames: 5
Frame Time: 0.016667
19.580931 86.539139 136.059601 4.092190 13.974801 -12.265835 13.025951 17.000713 -0.152368 0.875842 4.564849 0.849562 0.944226 4.513869 0.831296 -7.174458 0.707206 1.618330 -7.184668 0.733198 1.492109 -0.000000 -0.000001 0.000000 1.345866 3.250281 -9.634089 43.711209 5.464603 -65.114010 0.000002 -18.877055 -0.000029 0.000002 -0.000000 0.000000 1.474191 10.777743 16.727526 -5.334943 28.770908 36.627962 -0.002330 91.154680 0.001905 -0.000001 -0.000001 -0.000002 -55.138256 1.588566 -6.034102 129.862400 -6.165813 -0.512394 23.409865 0.207974 -6.045849 10.065256 0.000004 0.000007 0.000001 0.000001 -0.000001 -2.287707 -2.300860 -8.940302 40.884440 3.323072 -3.898583 -28.863662 12.136415 8.570047 -20.401316 -0.102649 4.188333 -0.000000 0.000001 0.000000 
21.968830 87.676926 141.275116 4.247972 15.764929 -10.827565 13.479785 17.979701 -2.174451 0.591872 4.924146 0.646879 0.660280 4.879030 0.617509 -7.444797 0.437954 1.466280 -7.453546 0.452097 1.331056 -0.000000 0.000002 -0.000000 1.277731 2.516998 -8.385472 48.031260 6.485745 -65.914228 0.000005 -21.222115 0.000016 -0.000002 0.000001 -0.000003 1.708163 9.630149 15.435440 -6.088632 30.421270 36.118904 0.000317 98.198989 -0.000330 0.000003 0.000000 -0.000000 -59.228600 2.613272 -8.683812 124.298993 -4.462391 -0.313221 19.571251 1.749667 -4.887586 9.939412 -0.000005 0.000010 -0.000000 -0.000001 0.000001 2.850457 -4.656779 -11.120662 35.492436 3.451757 -3.451743 -19.762440 14.520659 8.462878 -22.256906 -0.128288 4.695373 0.000000 0.000003 -0.000000 
24.374201 88.798332 146.358810 4.682954 17.985942 -9.763836 13.871390 18.646693 -3.869746 0.209759 5.189293 0.423440 0.277562 5.151550 0.377249 -7.735299 0.167221 1.373195 -7.742598 0.173630 1.230621 0.000000 0.000004 -0.000000 1.250050 1.672694 -7.564399 51.337952 7.143890 -65.967237 0.000022 -23.050046 -0.000017 0.000000 -0.000001 -0.000000 1.905170 8.152079 14.725172 -7.072736 31.375031 35.038187 0.000138 104.732174 -0.000145 0.000002 -0.000000 0.000000 -62.650580 3.074240 -11.133653 117.769400 -3.519796 -0.300888 16.970534 2.595956 -3.775114 9.045493 -0.000003 -0.000002 -0.000000 0.000001 0.000001 7.230861 -7.156798 -12.595876 29.779843 3.361992 -2.319290 -6.845221 16.247063 7.126095 -31.978604 -1.315048 6.225979 -0.000001 -0.000001 -0.000000 
26.805218 89.912888 151.319946 5.418886 20.339074 -9.235230 14.015695 19.118080 -5.080631 -0.214929 5.381739 0.182977 -0.146925 5.352173 0.117408 -8.024067 -0.092427 1.361798 -8.030717 -0.088175 1.213126 -0.000000 -0.000001 0.000000 1.250342 0.913176 -7.274812 53.636922 7.522740 -65.192202 -0.000030 -24.332335 -0.000016 -0.000003 -0.000002 -0.000000 2.068359 6.607915 14.670688 -8.279811 31.848148 33.448167 0.000041 110.498739 -0.000044 -0.000001 -0.000000 0.000000 -65.288330 3.051498 -13.074214 110.120825 -3.181481 -0.430652 16.067141 2.825966 -3.260683 7.684905 -0.000002 -0.000000 -0.000003 -0.000000 0.000001 12.484055 -9.762122 -12.474292 20.438081 3.748853 -1.231794 10.623054 16.816877 4.337666 -45.832827 -2.911535 5.297994 0.000001 -0.000001 0.000000 
29.303732 91.074387 156.227417 6.405748 22.549101 -9.287690 13.758935 19.484576 -5.741141 -0.597668 5.520818 -0.050556 -0.528307 5.498925 -0.132400 -8.285753 -0.325711 1.435634 -8.293054 -0.318288 1.281973 -0.000000 -0.000003 0.000000 1.257079 0.456544 -7.480157 55.023133 7.627759 -63.784992 0.000024 -25.128674 -0.000011 -0.000003 0.000001 0.000001 2.215914 5.258896 15.187551 -9.578977 32.019835 31.522020 0.000028 115.270425 -0.000024 0.000001 -0.000000 0.000001 -66.859458 2.672383 -14.232412 101.249959 -2.876290 -0.681771 16.547981 2.654692 -3.666115 6.199994 0.000005 0.000003 -0.000001 -0.000001 0.000000 19.458435 -11.884763 -11.055044 7.902657 3.858365 -0.224331 26.314369 16.115708 2.761671 -46.376575 -3.855550 5.626326 0.000002 0.000001 0.000000 
